{
    "accessors" : [
        {
            "bufferView" : 0, 
            "componentType" : 5123, 
            "count" : 176160, 
            "max" : [
                65535
            ], 
            "min" : [
                0
            ], 
            "type" : "SCALAR"
        }, 
        {
            "bufferView" : 1, 
            "componentType" : 5126, 
            "count" : 65536, 
            "max" : [
                1975.31298828125, 
                5577.5634765625, 
                653.0514526367188
            ], 
            "min" : [
                -1975.167236328125, 
                -5578.1015625, 
                -666.1614990234375
            ], 
            "type" : "VEC3"
        }, 
        {
            "bufferView" : 2, 
            "componentType" : 5126, 
            "count" : 65536, 
            "max" : [
                1.0, 
                1.0, 
                1.0
            ], 
            "min" : [
                -1.0, 
                -1.0, 
                -1.0
            ], 
            "type" : "VEC3"
        }, 
        {
            "bufferView" : 3, 
            "componentType" : 5126, 
            "count" : 65536, 
            "max" : [
                0.5942425727844238, 
                0.7731544673442841
            ], 
            "min" : [
                0.4091183543205261, 
                0.2592180371284485
            ], 
            "type" : "VEC2"
        }, 
        {
            "bufferView" : 4, 
            "componentType" : 5123, 
            "count" : 501, 
            "max" : [
                749
            ], 
            "min" : [
                0
            ], 
            "type" : "SCALAR"
        }, 
        {
            "bufferView" : 5, 
            "componentType" : 5126, 
            "count" : 750, 
            "max" : [
                1974.87646484375, 
                5560.54150390625, 
                578.8854370117188
            ], 
            "min" : [
                -1928.9029541015625, 
                -5363.93408203125, 
                -645.211669921875
            ], 
            "type" : "VEC3"
        }, 
        {
            "bufferView" : 6, 
            "componentType" : 5126, 
            "count" : 750, 
            "max" : [
                1.0, 
                1.0, 
                1.0
            ], 
            "min" : [
                -0.999969482421875, 
                -1.0, 
                -1.0
            ], 
            "type" : "VEC3"
        }, 
        {
            "bufferView" : 7, 
            "componentType" : 5126, 
            "count" : 750, 
            "max" : [
                0.5922459959983826, 
                0.7714312076568604
            ], 
            "min" : [
                0.4114941656589508, 
                0.26759767532348633
            ], 
            "type" : "VEC2"
        }, 
        {
            "bufferView" : 8, 
            "componentType" : 5123, 
            "count" : 1911, 
            "max" : [
                1198
            ], 
            "min" : [
                0
            ], 
            "type" : "SCALAR"
        }, 
        {
            "bufferView" : 9, 
            "componentType" : 5126, 
            "count" : 1199, 
            "max" : [
                1974.87646484375, 
                5569.27099609375, 
                611.5881958007812
            ], 
            "min" : [
                -1947.234130859375, 
                -5363.93408203125, 
                -647.3939208984375
            ], 
            "type" : "VEC3"
        }, 
        {
            "bufferView" : 10, 
            "componentType" : 5126, 
            "count" : 1199, 
            "max" : [
                1.0, 
                1.0, 
                1.0
            ], 
            "min" : [
                -0.999969482421875, 
                -1.0, 
                -1.0
            ], 
            "type" : "VEC3"
        }, 
        {
            "bufferView" : 11, 
            "componentType" : 5126, 
            "count" : 1199, 
            "max" : [
                0.592272937297821, 
                0.7715582400560379
            ], 
            "min" : [
                0.41023898124694824, 
                0.26697230339050293
            ], 
            "type" : "VEC2"
        }
    ], 
    "asset" : {
        "generator" : "Khronos Blender glTF 2.0 exporter", 
        "version" : "2.0"
    }, 
    "bufferViews" : [
        {
            "buffer" : 0, 
            "byteLength" : 352320, 
            "byteOffset" : 0, 
            "target" : 34963
        }, 
        {
            "buffer" : 0, 
            "byteLength" : 786432, 
            "byteOffset" : 352320, 
            "target" : 34962
        }, 
        {
            "buffer" : 0, 
            "byteLength" : 786432, 
            "byteOffset" : 1138752, 
            "target" : 34962
        }, 
        {
            "buffer" : 0, 
            "byteLength" : 524288, 
            "byteOffset" : 1925184, 
            "target" : 34962
        }, 
        {
            "buffer" : 0, 
            "byteLength" : 1002, 
            "byteOffset" : 2449472, 
            "target" : 34963
        }, 
        {
            "buffer" : 0, 
            "byteLength" : 9000, 
            "byteOffset" : 2450476, 
            "target" : 34962
        }, 
        {
            "buffer" : 0, 
            "byteLength" : 9000, 
            "byteOffset" : 2459476, 
            "target" : 34962
        }, 
        {
            "buffer" : 0, 
            "byteLength" : 6000, 
            "byteOffset" : 2468476, 
            "target" : 34962
        }, 
        {
            "buffer" : 0, 
            "byteLength" : 3822, 
            "byteOffset" : 2474476, 
            "target" : 34963
        }, 
        {
            "buffer" : 0, 
            "byteLength" : 14388, 
            "byteOffset" : 2478300, 
            "target" : 34962
        }, 
        {
            "buffer" : 0, 
            "byteLength" : 14388, 
            "byteOffset" : 2492688, 
            "target" : 34962
        }, 
        {
            "buffer" : 0, 
            "byteLength" : 9592, 
            "byteOffset" : 2507076, 
            "target" : 34962
        }
    ], 
    "buffers" : [
        {
            "byteLength" : 2516668, 
            "uri" : "Caterpillar.bin"
        }
    ], 
    "cameras" : [
        {
            "name" : "Camera", 
            "perspective" : {
                "aspectRatio" : 1.7777777777777777, 
                "yfov" : 0.5033799372418416, 
                "zfar" : 100.0, 
                "znear" : 0.10000000149011612
            }, 
            "type" : "perspective"
        }
    ], 
    "meshes" : [
        {
            "name" : "Caterpillar", 
            "primitives" : [
                {
                    "attributes" : {
                        "NORMAL" : 2, 
                        "POSITION" : 1, 
                        "TEXCOORD_0" : 3
                    }, 
                    "indices" : 0
                }, 
                {
                    "attributes" : {
                        "NORMAL" : 6, 
                        "POSITION" : 5, 
                        "TEXCOORD_0" : 7
                    }, 
                    "indices" : 4
                }, 
                {
                    "attributes" : {
                        "NORMAL" : 10, 
                        "POSITION" : 9, 
                        "TEXCOORD_0" : 11
                    }, 
                    "indices" : 8
                }
            ]
        }
    ], 
    "nodes" : [
        {
            "camera" : 0, 
            "name" : "Correction_Camera", 
            "rotation" : [
                -0.7071067690849304, 
                -0.0, 
                0.0, 
                0.7071067690849304
            ]
        }, 
        {
            "children" : [
                0
            ], 
            "name" : "Camera", 
            "rotation" : [
                0.483536034822464, 
                0.33687159419059753, 
                -0.20870360732078552, 
                0.7804827094078064
            ], 
            "translation" : [
                7.481131553649902, 
                5.34366512298584, 
                6.5076398849487305
            ]
        }, 
        {
            "mesh" : 0, 
            "name" : "Caterpillar", 
            "rotation" : [
                0.7071068286895752, 
                0.0, 
                -0.0, 
                0.7071068286895752
            ], 
            "scale" : [
                0.0014863465912640095, 
                0.0014863465912640095, 
                0.0014863465912640095
            ]
        }, 
        {
            "name" : "Lamp", 
            "rotation" : [
                0.16907575726509094, 
                0.7558802962303162, 
                -0.27217137813568115, 
                0.570947527885437
            ], 
            "scale" : [
                1.0, 
                1.0, 
                0.9999999403953552
            ], 
            "translation" : [
                4.076245307922363, 
                5.903861999511719, 
                -1.0054539442062378
            ]
        }
    ], 
    "scene" : 0, 
    "scenes" : [
        {
            "name" : "Scene", 
            "nodes" : [
                2, 
                3, 
                1
            ]
        }
    ]
}
