{
    "accessors" : [
        {
            "bufferView" : 0, 
            "componentType" : 5123, 
            "count" : 164523, 
            "max" : [
                65535
            ], 
            "min" : [
                0
            ], 
            "type" : "SCALAR"
        }, 
        {
            "bufferView" : 1, 
            "componentType" : 5126, 
            "count" : 65536, 
            "max" : [
                1125.2891845703125, 
                974.0198364257812, 
                315.66015625
            ], 
            "min" : [
                -1125.2734375, 
                -1117.96875, 
                -315.6866760253906
            ], 
            "type" : "VEC3"
        }, 
        {
            "bufferView" : 2, 
            "componentType" : 5126, 
            "count" : 65536, 
            "max" : [
                1.0, 
                1.0, 
                1.0
            ], 
            "min" : [
                -1.0, 
                -1.0, 
                -1.0
            ], 
            "type" : "VEC3"
        }, 
        {
            "bufferView" : 3, 
            "componentType" : 5126, 
            "count" : 65536, 
            "max" : [
                1.0, 
                0.9998711943626404, 
                0.9999995231628418, 
                1.0
            ], 
            "min" : [
                -0.9927651882171631, 
                -0.9998723268508911, 
                -0.9999998807907104, 
                1.0
            ], 
            "type" : "VEC4"
        }, 
        {
            "bufferView" : 4, 
            "componentType" : 5126, 
            "count" : 65536, 
            "max" : [
                0.7623398303985596, 
                0.7142235040664673
            ], 
            "min" : [
                0.23883990943431854, 
                0.22337305545806885
            ], 
            "type" : "VEC2"
        }, 
        {
            "bufferView" : 5, 
            "componentType" : 5123, 
            "count" : 15894, 
            "max" : [
                7347
            ], 
            "min" : [
                0
            ], 
            "type" : "SCALAR"
        }, 
        {
            "bufferView" : 6, 
            "componentType" : 5126, 
            "count" : 7348, 
            "max" : [
                588.148681640625, 
                1117.9388427734375, 
                77.62214660644531
            ], 
            "min" : [
                -588.133056640625, 
                663.21923828125, 
                -245.328369140625
            ], 
            "type" : "VEC3"
        }, 
        {
            "bufferView" : 7, 
            "componentType" : 5126, 
            "count" : 7348, 
            "max" : [
                1.0, 
                1.0, 
                0.999969482421875
            ], 
            "min" : [
                -1.0, 
                -0.981536328792572, 
                -0.999969482421875
            ], 
            "type" : "VEC3"
        }, 
        {
            "bufferView" : 8, 
            "componentType" : 5126, 
            "count" : 7348, 
            "max" : [
                0.9999999403953552, 
                0.9639955759048462, 
                0.9980261325836182, 
                1.0
            ], 
            "min" : [
                -0.6993016600608826, 
                -0.9974987506866455, 
                -0.9963043332099915, 
                1.0
            ], 
            "type" : "VEC4"
        }, 
        {
            "bufferView" : 9, 
            "componentType" : 5126, 
            "count" : 7348, 
            "max" : [
                0.6292340159416199, 
                0.7487773299217224
            ], 
            "min" : [
                0.37241390347480774, 
                0.6435026228427887
            ], 
            "type" : "VEC2"
        }, 
        {
            "bufferView" : 10, 
            "componentType" : 5123, 
            "count" : 3015, 
            "max" : [
                1318
            ], 
            "min" : [
                0
            ], 
            "type" : "SCALAR"
        }, 
        {
            "bufferView" : 11, 
            "componentType" : 5126, 
            "count" : 1319, 
            "max" : [
                588.148681640625, 
                1005.1265258789062, 
                77.15174102783203
            ], 
            "min" : [
                -588.133056640625, 
                662.9840698242188, 
                -242.38832092285156
            ], 
            "type" : "VEC3"
        }, 
        {
            "bufferView" : 12, 
            "componentType" : 5126, 
            "count" : 1319, 
            "max" : [
                0.999237060546875, 
                0.9880672693252563, 
                0.999969482421875
            ], 
            "min" : [
                -0.9998779296875, 
                -0.38358715176582336, 
                -0.9998779296875
            ], 
            "type" : "VEC3"
        }, 
        {
            "bufferView" : 13, 
            "componentType" : 5126, 
            "count" : 1319, 
            "max" : [
                0.9999997615814209, 
                0.8010174036026001, 
                0.992193877696991, 
                1.0
            ], 
            "min" : [
                -0.5281568169593811, 
                -0.8138153553009033, 
                -0.9835282564163208, 
                1.0
            ], 
            "type" : "VEC4"
        }, 
        {
            "bufferView" : 14, 
            "componentType" : 5126, 
            "count" : 1319, 
            "max" : [
                0.6294058561325073, 
                0.7243397831916809
            ], 
            "min" : [
                0.37220248579978943, 
                0.6426945924758911
            ], 
            "type" : "VEC2"
        }
    ], 
    "asset" : {
        "generator" : "Khronos Blender glTF 2.0 exporter", 
        "version" : "2.0"
    }, 
    "bufferViews" : [
        {
            "buffer" : 0, 
            "byteLength" : 329046, 
            "byteOffset" : 0, 
            "target" : 34963
        }, 
        {
            "buffer" : 0, 
            "byteLength" : 786432, 
            "byteOffset" : 329048, 
            "target" : 34962
        }, 
        {
            "buffer" : 0, 
            "byteLength" : 786432, 
            "byteOffset" : 1115480, 
            "target" : 34962
        }, 
        {
            "buffer" : 0, 
            "byteLength" : 1048576, 
            "byteOffset" : 1901912, 
            "target" : 34962
        }, 
        {
            "buffer" : 0, 
            "byteLength" : 524288, 
            "byteOffset" : 2950488, 
            "target" : 34962
        }, 
        {
            "buffer" : 0, 
            "byteLength" : 31788, 
            "byteOffset" : 3474776, 
            "target" : 34963
        }, 
        {
            "buffer" : 0, 
            "byteLength" : 88176, 
            "byteOffset" : 3506564, 
            "target" : 34962
        }, 
        {
            "buffer" : 0, 
            "byteLength" : 88176, 
            "byteOffset" : 3594740, 
            "target" : 34962
        }, 
        {
            "buffer" : 0, 
            "byteLength" : 117568, 
            "byteOffset" : 3682916, 
            "target" : 34962
        }, 
        {
            "buffer" : 0, 
            "byteLength" : 58784, 
            "byteOffset" : 3800484, 
            "target" : 34962
        }, 
        {
            "buffer" : 0, 
            "byteLength" : 6030, 
            "byteOffset" : 3859268, 
            "target" : 34963
        }, 
        {
            "buffer" : 0, 
            "byteLength" : 15828, 
            "byteOffset" : 3865300, 
            "target" : 34962
        }, 
        {
            "buffer" : 0, 
            "byteLength" : 15828, 
            "byteOffset" : 3881128, 
            "target" : 34962
        }, 
        {
            "buffer" : 0, 
            "byteLength" : 21104, 
            "byteOffset" : 3896956, 
            "target" : 34962
        }, 
        {
            "buffer" : 0, 
            "byteLength" : 10552, 
            "byteOffset" : 3918060, 
            "target" : 34962
        }
    ], 
    "buffers" : [
        {
            "byteLength" : 3928612, 
            "uri" : "Gladiator.bin"
        }
    ], 
    "cameras" : [
        {
            "name" : "Camera", 
            "perspective" : {
                "aspectRatio" : 1.7777777777777777, 
                "yfov" : 0.5033799372418416, 
                "zfar" : 100.0, 
                "znear" : 0.10000000149011612
            }, 
            "type" : "perspective"
        }
    ], 
    "meshes" : [
        {
            "name" : "gladiator", 
            "primitives" : [
                {
                    "attributes" : {
                        "NORMAL" : 2, 
                        "POSITION" : 1, 
                        "TANGENT" : 3, 
                        "TEXCOORD_0" : 4
                    }, 
                    "indices" : 0
                }, 
                {
                    "attributes" : {
                        "NORMAL" : 7, 
                        "POSITION" : 6, 
                        "TANGENT" : 8, 
                        "TEXCOORD_0" : 9
                    }, 
                    "indices" : 5
                }, 
                {
                    "attributes" : {
                        "NORMAL" : 12, 
                        "POSITION" : 11, 
                        "TANGENT" : 13, 
                        "TEXCOORD_0" : 14
                    }, 
                    "indices" : 10
                }
            ]
        }
    ], 
    "nodes" : [
        {
            "camera" : 0, 
            "name" : "Correction_Camera", 
            "rotation" : [
                -0.7071067690849304, 
                -0.0, 
                0.0, 
                0.7071067690849304
            ]
        }, 
        {
            "children" : [
                0
            ], 
            "name" : "Camera", 
            "rotation" : [
                0.483536034822464, 
                0.33687159419059753, 
                -0.20870360732078552, 
                0.7804827094078064
            ], 
            "translation" : [
                7.481131553649902, 
                5.34366512298584, 
                6.5076398849487305
            ]
        }, 
        {
            "mesh" : 0, 
            "name" : "gladiator", 
            "rotation" : [
                0.7071068286895752, 
                0.0, 
                -0.0, 
                0.7071068286895752
            ], 
            "scale" : [
                0.0051965597085654736, 
                0.0051965597085654736, 
                0.0051965597085654736
            ]
        }, 
        {
            "name" : "Lamp", 
            "rotation" : [
                0.16907575726509094, 
                0.7558802962303162, 
                -0.27217137813568115, 
                0.570947527885437
            ], 
            "scale" : [
                1.0, 
                1.0, 
                0.9999999403953552
            ], 
            "translation" : [
                4.076245307922363, 
                5.903861999511719, 
                -1.0054539442062378
            ]
        }
    ], 
    "scene" : 0, 
    "scenes" : [
        {
            "name" : "Scene", 
            "nodes" : [
                2, 
                3, 
                1
            ]
        }
    ]
}
