{
    "accessors" : [
        {
            "bufferView" : 0, 
            "componentType" : 5123, 
            "count" : 171717, 
            "max" : [
                65535
            ], 
            "min" : [
                0
            ], 
            "type" : "SCALAR"
        }, 
        {
            "bufferView" : 1, 
            "componentType" : 5126, 
            "count" : 65536, 
            "max" : [
                1044.5684814453125, 
                1351.023681640625, 
                420.4870910644531
            ], 
            "min" : [
                -1044.625, 
                -1537.7265625, 
                -420.3251953125
            ], 
            "type" : "VEC3"
        }, 
        {
            "bufferView" : 2, 
            "componentType" : 5126, 
            "count" : 65536, 
            "max" : [
                1.0, 
                1.0, 
                1.0
            ], 
            "min" : [
                -1.0, 
                -1.0, 
                -1.0
            ], 
            "type" : "VEC3"
        }, 
        {
            "bufferView" : 3, 
            "componentType" : 5126, 
            "count" : 65536, 
            "max" : [
                0.9999990463256836, 
                0.9990617632865906, 
                0.9999996423721313, 
                1.0
            ], 
            "min" : [
                -0.9898582100868225, 
                -0.9999979734420776, 
                -0.9999967813491821, 
                1.0
            ], 
            "type" : "VEC4"
        }, 
        {
            "bufferView" : 4, 
            "componentType" : 5126, 
            "count" : 65536, 
            "max" : [
                0.6316784620285034, 
                0.6895059943199158
            ], 
            "min" : [
                0.3671950697898865, 
                0.32664209604263306
            ], 
            "type" : "VEC2"
        }, 
        {
            "bufferView" : 5, 
            "componentType" : 5123, 
            "count" : 26109, 
            "max" : [
                9021
            ], 
            "min" : [
                0
            ], 
            "type" : "SCALAR"
        }, 
        {
            "bufferView" : 6, 
            "componentType" : 5126, 
            "count" : 9022, 
            "max" : [
                307.90521240234375, 
                1537.802001953125, 
                39.101768493652344
            ], 
            "min" : [
                -283.30072021484375, 
                1168.541748046875, 
                -258.88623046875
            ], 
            "type" : "VEC3"
        }, 
        {
            "bufferView" : 7, 
            "componentType" : 5126, 
            "count" : 9022, 
            "max" : [
                1.0, 
                1.0, 
                1.0
            ], 
            "min" : [
                -1.0, 
                -1.0, 
                -1.0
            ], 
            "type" : "VEC3"
        }, 
        {
            "bufferView" : 8, 
            "componentType" : 5126, 
            "count" : 9022, 
            "max" : [
                0.9999776482582092, 
                0.9973439574241638, 
                0.9999893307685852, 
                1.0
            ], 
            "min" : [
                -0.9321355819702148, 
                -0.9873793721199036, 
                -0.9999872446060181, 
                1.0
            ], 
            "type" : "VEC4"
        }, 
        {
            "bufferView" : 9, 
            "componentType" : 5126, 
            "count" : 9022, 
            "max" : [
                0.5424569249153137, 
                0.7205018997192383
            ], 
            "min" : [
                0.45889222621917725, 
                0.6608540117740631
            ], 
            "type" : "VEC2"
        }, 
        {
            "bufferView" : 10, 
            "componentType" : 5123, 
            "count" : 1722, 
            "max" : [
                869
            ], 
            "min" : [
                0
            ], 
            "type" : "SCALAR"
        }, 
        {
            "bufferView" : 11, 
            "componentType" : 5126, 
            "count" : 870, 
            "max" : [
                309.6904602050781, 
                1407.948486328125, 
                35.134552001953125
            ], 
            "min" : [
                -288.4580993652344, 
                1167.1531982421875, 
                -252.5386962890625
            ], 
            "type" : "VEC3"
        }, 
        {
            "bufferView" : 12, 
            "componentType" : 5126, 
            "count" : 870, 
            "max" : [
                1.0, 
                1.0, 
                1.0
            ], 
            "min" : [
                -1.0, 
                -0.9894406199455261, 
                -0.9987182021141052
            ], 
            "type" : "VEC3"
        }, 
        {
            "bufferView" : 13, 
            "componentType" : 5126, 
            "count" : 870, 
            "max" : [
                0.9999722838401794, 
                0.9936969876289368, 
                0.9991278052330017, 
                1.0
            ], 
            "min" : [
                -0.6883482336997986, 
                -0.9862905740737915, 
                -0.9988278746604919, 
                1.0
            ], 
            "type" : "VEC4"
        }, 
        {
            "bufferView" : 14, 
            "componentType" : 5126, 
            "count" : 870, 
            "max" : [
                0.5426817536354065, 
                0.6969122886657715
            ], 
            "min" : [
                0.4577331840991974, 
                0.6613155901432037
            ], 
            "type" : "VEC2"
        }
    ], 
    "asset" : {
        "generator" : "Khronos Blender glTF 2.0 exporter", 
        "version" : "2.0"
    }, 
    "bufferViews" : [
        {
            "buffer" : 0, 
            "byteLength" : 343434, 
            "byteOffset" : 0, 
            "target" : 34963
        }, 
        {
            "buffer" : 0, 
            "byteLength" : 786432, 
            "byteOffset" : 343436, 
            "target" : 34962
        }, 
        {
            "buffer" : 0, 
            "byteLength" : 786432, 
            "byteOffset" : 1129868, 
            "target" : 34962
        }, 
        {
            "buffer" : 0, 
            "byteLength" : 1048576, 
            "byteOffset" : 1916300, 
            "target" : 34962
        }, 
        {
            "buffer" : 0, 
            "byteLength" : 524288, 
            "byteOffset" : 2964876, 
            "target" : 34962
        }, 
        {
            "buffer" : 0, 
            "byteLength" : 52218, 
            "byteOffset" : 3489164, 
            "target" : 34963
        }, 
        {
            "buffer" : 0, 
            "byteLength" : 108264, 
            "byteOffset" : 3541384, 
            "target" : 34962
        }, 
        {
            "buffer" : 0, 
            "byteLength" : 108264, 
            "byteOffset" : 3649648, 
            "target" : 34962
        }, 
        {
            "buffer" : 0, 
            "byteLength" : 144352, 
            "byteOffset" : 3757912, 
            "target" : 34962
        }, 
        {
            "buffer" : 0, 
            "byteLength" : 72176, 
            "byteOffset" : 3902264, 
            "target" : 34962
        }, 
        {
            "buffer" : 0, 
            "byteLength" : 3444, 
            "byteOffset" : 3974440, 
            "target" : 34963
        }, 
        {
            "buffer" : 0, 
            "byteLength" : 10440, 
            "byteOffset" : 3977884, 
            "target" : 34962
        }, 
        {
            "buffer" : 0, 
            "byteLength" : 10440, 
            "byteOffset" : 3988324, 
            "target" : 34962
        }, 
        {
            "buffer" : 0, 
            "byteLength" : 13920, 
            "byteOffset" : 3998764, 
            "target" : 34962
        }, 
        {
            "buffer" : 0, 
            "byteLength" : 6960, 
            "byteOffset" : 4012684, 
            "target" : 34962
        }
    ], 
    "buffers" : [
        {
            "byteLength" : 4019644, 
            "uri" : "Glaive.bin"
        }
    ], 
    "cameras" : [
        {
            "name" : "Camera", 
            "perspective" : {
                "aspectRatio" : 1.7777777777777777, 
                "yfov" : 0.5033799372418416, 
                "zfar" : 100.0, 
                "znear" : 0.10000000149011612
            }, 
            "type" : "perspective"
        }
    ], 
    "meshes" : [
        {
            "name" : "vanduul glaive", 
            "primitives" : [
                {
                    "attributes" : {
                        "NORMAL" : 2, 
                        "POSITION" : 1, 
                        "TANGENT" : 3, 
                        "TEXCOORD_0" : 4
                    }, 
                    "indices" : 0
                }, 
                {
                    "attributes" : {
                        "NORMAL" : 7, 
                        "POSITION" : 6, 
                        "TANGENT" : 8, 
                        "TEXCOORD_0" : 9
                    }, 
                    "indices" : 5
                }, 
                {
                    "attributes" : {
                        "NORMAL" : 12, 
                        "POSITION" : 11, 
                        "TANGENT" : 13, 
                        "TEXCOORD_0" : 14
                    }, 
                    "indices" : 10
                }
            ]
        }
    ], 
    "nodes" : [
        {
            "camera" : 0, 
            "name" : "Correction_Camera", 
            "rotation" : [
                -0.7071067690849304, 
                -0.0, 
                0.0, 
                0.7071067690849304
            ]
        }, 
        {
            "children" : [
                0
            ], 
            "name" : "Camera", 
            "rotation" : [
                0.483536034822464, 
                0.33687159419059753, 
                -0.20870360732078552, 
                0.7804827094078064
            ], 
            "translation" : [
                7.481131553649902, 
                5.34366512298584, 
                6.5076398849487305
            ]
        }, 
        {
            "name" : "Lamp", 
            "rotation" : [
                0.16907575726509094, 
                0.7558802962303162, 
                -0.27217137813568115, 
                0.570947527885437
            ], 
            "scale" : [
                1.0, 
                1.0, 
                0.9999999403953552
            ], 
            "translation" : [
                4.076245307922363, 
                5.903861999511719, 
                -1.0054539442062378
            ]
        }, 
        {
            "mesh" : 0, 
            "name" : "vanduul glaive", 
            "rotation" : [
                0.7071068286895752, 
                0.0, 
                -0.0, 
                0.7071068286895752
            ], 
            "scale" : [
                0.003598460229113698, 
                0.003598460229113698, 
                0.003598460229113698
            ]
        }
    ], 
    "scene" : 0, 
    "scenes" : [
        {
            "name" : "Scene", 
            "nodes" : [
                3, 
                2, 
                1
            ]
        }
    ]
}
