{
    "accessors" : [
        {
            "bufferView" : 0, 
            "componentType" : 5123, 
            "count" : 109848, 
            "max" : [
                65533
            ], 
            "min" : [
                0
            ], 
            "type" : "SCALAR"
        }, 
        {
            "bufferView" : 1, 
            "componentType" : 5126, 
            "count" : 65534, 
            "max" : [
                2182.240234375, 
                4557.34912109375, 
                2289.9189453125
            ], 
            "min" : [
                -2165.324462890625, 
                -4663.310546875, 
                -2057.652587890625
            ], 
            "type" : "VEC3"
        }, 
        {
            "bufferView" : 2, 
            "componentType" : 5126, 
            "count" : 65534, 
            "max" : [
                1.0, 
                1.0, 
                1.0
            ], 
            "min" : [
                -1.0, 
                -1.0, 
                -1.0
            ], 
            "type" : "VEC3"
        }, 
        {
            "bufferView" : 3, 
            "componentType" : 5126, 
            "count" : 65534, 
            "max" : [
                1.0, 
                0.9999960660934448, 
                0.9999995231628418, 
                1.0
            ], 
            "min" : [
                -0.9979167580604553, 
                -0.998924732208252, 
                -1.0, 
                1.0
            ], 
            "type" : "VEC4"
        }, 
        {
            "bufferView" : 4, 
            "componentType" : 5126, 
            "count" : 65534, 
            "max" : [
                0.5835703611373901, 
                0.6691545844078064
            ], 
            "min" : [
                0.41839927434921265, 
                0.32582831382751465
            ], 
            "type" : "VEC2"
        }, 
        {
            "bufferView" : 5, 
            "componentType" : 5123, 
            "count" : 50520, 
            "max" : [
                21102
            ], 
            "min" : [
                0
            ], 
            "type" : "SCALAR"
        }, 
        {
            "bufferView" : 6, 
            "componentType" : 5126, 
            "count" : 21103, 
            "max" : [
                1504.9046630859375, 
                5783.46337890625, 
                907.0736694335938
            ], 
            "min" : [
                -1506.36083984375, 
                4073.3662109375, 
                -1221.086669921875
            ], 
            "type" : "VEC3"
        }, 
        {
            "bufferView" : 7, 
            "componentType" : 5126, 
            "count" : 21103, 
            "max" : [
                1.0, 
                1.0, 
                1.0
            ], 
            "min" : [
                -1.0, 
                -1.0, 
                -1.0
            ], 
            "type" : "VEC3"
        }, 
        {
            "bufferView" : 8, 
            "componentType" : 5126, 
            "count" : 21103, 
            "max" : [
                1.0, 
                0.9964263439178467, 
                0.9999022483825684, 
                1.0
            ], 
            "min" : [
                -0.9325230121612549, 
                -0.9986756443977356, 
                -0.9999887943267822, 
                1.0
            ], 
            "type" : "VEC4"
        }, 
        {
            "bufferView" : 9, 
            "componentType" : 5126, 
            "count" : 21103, 
            "max" : [
                0.5501879453659058, 
                0.7203327715396881
            ], 
            "min" : [
                0.4433855414390564, 
                0.6388407349586487
            ], 
            "type" : "VEC2"
        }, 
        {
            "bufferView" : 10, 
            "componentType" : 5123, 
            "count" : 510, 
            "max" : [
                298
            ], 
            "min" : [
                0
            ], 
            "type" : "SCALAR"
        }, 
        {
            "bufferView" : 11, 
            "componentType" : 5126, 
            "count" : 299, 
            "max" : [
                1497.5555419921875, 
                4382.498046875, 
                448.37109375
            ], 
            "min" : [
                -1494.7247314453125, 
                4073.978759765625, 
                -1213.1251220703125
            ], 
            "type" : "VEC3"
        }, 
        {
            "bufferView" : 12, 
            "componentType" : 5126, 
            "count" : 299, 
            "max" : [
                1.0, 
                1.0, 
                0.9987792372703552
            ], 
            "min" : [
                -1.0, 
                -0.9942014813423157, 
                -0.999969482421875
            ], 
            "type" : "VEC3"
        }, 
        {
            "bufferView" : 13, 
            "componentType" : 5126, 
            "count" : 299, 
            "max" : [
                0.9998921155929565, 
                0.8210923075675964, 
                0.9874231815338135, 
                1.0
            ], 
            "min" : [
                -0.7044141292572021, 
                -0.8195561170578003, 
                -0.9861264824867249, 
                1.0
            ], 
            "type" : "VEC4"
        }, 
        {
            "bufferView" : 14, 
            "componentType" : 5126, 
            "count" : 299, 
            "max" : [
                0.5499131083488464, 
                0.6692036688327789
            ], 
            "min" : [
                0.44380125403404236, 
                0.6393957138061523
            ], 
            "type" : "VEC2"
        }
    ], 
    "asset" : {
        "generator" : "Khronos Blender glTF 2.0 exporter", 
        "version" : "2.0"
    }, 
    "bufferViews" : [
        {
            "buffer" : 0, 
            "byteLength" : 219696, 
            "byteOffset" : 0, 
            "target" : 34963
        }, 
        {
            "buffer" : 0, 
            "byteLength" : 786408, 
            "byteOffset" : 219696, 
            "target" : 34962
        }, 
        {
            "buffer" : 0, 
            "byteLength" : 786408, 
            "byteOffset" : 1006104, 
            "target" : 34962
        }, 
        {
            "buffer" : 0, 
            "byteLength" : 1048544, 
            "byteOffset" : 1792512, 
            "target" : 34962
        }, 
        {
            "buffer" : 0, 
            "byteLength" : 524272, 
            "byteOffset" : 2841056, 
            "target" : 34962
        }, 
        {
            "buffer" : 0, 
            "byteLength" : 101040, 
            "byteOffset" : 3365328, 
            "target" : 34963
        }, 
        {
            "buffer" : 0, 
            "byteLength" : 253236, 
            "byteOffset" : 3466368, 
            "target" : 34962
        }, 
        {
            "buffer" : 0, 
            "byteLength" : 253236, 
            "byteOffset" : 3719604, 
            "target" : 34962
        }, 
        {
            "buffer" : 0, 
            "byteLength" : 337648, 
            "byteOffset" : 3972840, 
            "target" : 34962
        }, 
        {
            "buffer" : 0, 
            "byteLength" : 168824, 
            "byteOffset" : 4310488, 
            "target" : 34962
        }, 
        {
            "buffer" : 0, 
            "byteLength" : 1020, 
            "byteOffset" : 4479312, 
            "target" : 34963
        }, 
        {
            "buffer" : 0, 
            "byteLength" : 3588, 
            "byteOffset" : 4480332, 
            "target" : 34962
        }, 
        {
            "buffer" : 0, 
            "byteLength" : 3588, 
            "byteOffset" : 4483920, 
            "target" : 34962
        }, 
        {
            "buffer" : 0, 
            "byteLength" : 4784, 
            "byteOffset" : 4487508, 
            "target" : 34962
        }, 
        {
            "buffer" : 0, 
            "byteLength" : 2392, 
            "byteOffset" : 4492292, 
            "target" : 34962
        }
    ], 
    "buffers" : [
        {
            "byteLength" : 4494684, 
            "uri" : "Hull C.bin"
        }
    ], 
    "cameras" : [
        {
            "name" : "Camera", 
            "perspective" : {
                "aspectRatio" : 1.7777777777777777, 
                "yfov" : 0.5033799372418416, 
                "zfar" : 100.0, 
                "znear" : 0.10000000149011612
            }, 
            "type" : "perspective"
        }
    ], 
    "meshes" : [
        {
            "name" : "hull C", 
            "primitives" : [
                {
                    "attributes" : {
                        "NORMAL" : 2, 
                        "POSITION" : 1, 
                        "TANGENT" : 3, 
                        "TEXCOORD_0" : 4
                    }, 
                    "indices" : 0
                }, 
                {
                    "attributes" : {
                        "NORMAL" : 7, 
                        "POSITION" : 6, 
                        "TANGENT" : 8, 
                        "TEXCOORD_0" : 9
                    }, 
                    "indices" : 5
                }, 
                {
                    "attributes" : {
                        "NORMAL" : 12, 
                        "POSITION" : 11, 
                        "TANGENT" : 13, 
                        "TEXCOORD_0" : 14
                    }, 
                    "indices" : 10
                }
            ]
        }
    ], 
    "nodes" : [
        {
            "camera" : 0, 
            "name" : "Correction_Camera", 
            "rotation" : [
                -0.7071067690849304, 
                -0.0, 
                0.0, 
                0.7071067690849304
            ]
        }, 
        {
            "children" : [
                0
            ], 
            "name" : "Camera", 
            "rotation" : [
                0.483536034822464, 
                0.33687159419059753, 
                -0.20870360732078552, 
                0.7804827094078064
            ], 
            "translation" : [
                7.481131553649902, 
                5.34366512298584, 
                6.5076398849487305
            ]
        }, 
        {
            "mesh" : 0, 
            "name" : "hull C", 
            "rotation" : [
                0.7071068286895752, 
                0.0, 
                -0.0, 
                0.7071068286895752
            ], 
            "scale" : [
                0.00120535830501467, 
                0.00120535830501467, 
                0.00120535830501467
            ]
        }, 
        {
            "name" : "Lamp", 
            "rotation" : [
                0.16907575726509094, 
                0.7558802962303162, 
                -0.27217137813568115, 
                0.570947527885437
            ], 
            "scale" : [
                1.0, 
                1.0, 
                0.9999999403953552
            ], 
            "translation" : [
                4.076245307922363, 
                5.903861999511719, 
                -1.0054539442062378
            ]
        }
    ], 
    "scene" : 0, 
    "scenes" : [
        {
            "name" : "Scene", 
            "nodes" : [
                2, 
                3, 
                1
            ]
        }
    ]
}
