{
    "accessors" : [
        {
            "bufferView" : 0, 
            "componentType" : 5123, 
            "count" : 150090, 
            "max" : [
                61972
            ], 
            "min" : [
                0
            ], 
            "type" : "SCALAR"
        }, 
        {
            "bufferView" : 1, 
            "componentType" : 5126, 
            "count" : 61973, 
            "max" : [
                425.4449157714844, 
                460.8810729980469, 
                214.50155639648438
            ], 
            "min" : [
                -425.2303161621094, 
                -460.90716552734375, 
                -214.21426391601562
            ], 
            "type" : "VEC3"
        }, 
        {
            "bufferView" : 2, 
            "componentType" : 5126, 
            "count" : 61973, 
            "max" : [
                1.0, 
                1.0, 
                1.0
            ], 
            "min" : [
                -1.0, 
                -1.0, 
                -1.0
            ], 
            "type" : "VEC3"
        }, 
        {
            "bufferView" : 3, 
            "componentType" : 5126, 
            "count" : 61973, 
            "max" : [
                1.0, 
                0.9999272227287292, 
                0.9999992847442627, 
                1.0
            ], 
            "min" : [
                -0.960112988948822, 
                -0.9999479651451111, 
                -0.9999991655349731, 
                1.0
            ], 
            "type" : "VEC4"
        }, 
        {
            "bufferView" : 4, 
            "componentType" : 5126, 
            "count" : 61973, 
            "max" : [
                0.7503228187561035, 
                0.7697285264730453
            ], 
            "min" : [
                0.24684414267539978, 
                0.34079545736312866
            ], 
            "type" : "VEC2"
        }
    ], 
    "asset" : {
        "generator" : "Khronos Blender glTF 2.0 exporter", 
        "version" : "2.0"
    }, 
    "bufferViews" : [
        {
            "buffer" : 0, 
            "byteLength" : 300180, 
            "byteOffset" : 0, 
            "target" : 34963
        }, 
        {
            "buffer" : 0, 
            "byteLength" : 743676, 
            "byteOffset" : 300180, 
            "target" : 34962
        }, 
        {
            "buffer" : 0, 
            "byteLength" : 743676, 
            "byteOffset" : 1043856, 
            "target" : 34962
        }, 
        {
            "buffer" : 0, 
            "byteLength" : 991568, 
            "byteOffset" : 1787532, 
            "target" : 34962
        }, 
        {
            "buffer" : 0, 
            "byteLength" : 495784, 
            "byteOffset" : 2779100, 
            "target" : 34962
        }
    ], 
    "buffers" : [
        {
            "byteLength" : 3274884, 
            "uri" : "MPUV Cargo.bin"
        }
    ], 
    "cameras" : [
        {
            "name" : "Camera", 
            "perspective" : {
                "aspectRatio" : 1.7777777777777777, 
                "yfov" : 0.5033799372418416, 
                "zfar" : 100.0, 
                "znear" : 0.10000000149011612
            }, 
            "type" : "perspective"
        }
    ], 
    "meshes" : [
        {
            "name" : "MPUV Cargo", 
            "primitives" : [
                {
                    "attributes" : {
                        "NORMAL" : 2, 
                        "POSITION" : 1, 
                        "TANGENT" : 3, 
                        "TEXCOORD_0" : 4
                    }, 
                    "indices" : 0
                }
            ]
        }
    ], 
    "nodes" : [
        {
            "camera" : 0, 
            "name" : "Correction_Camera", 
            "rotation" : [
                -0.7071067690849304, 
                -0.0, 
                0.0, 
                0.7071067690849304
            ]
        }, 
        {
            "children" : [
                0
            ], 
            "name" : "Camera", 
            "rotation" : [
                0.483536034822464, 
                0.33687159419059753, 
                -0.20870360732078552, 
                0.7804827094078064
            ], 
            "translation" : [
                7.481131553649902, 
                5.34366512298584, 
                6.5076398849487305
            ]
        }, 
        {
            "name" : "Lamp", 
            "rotation" : [
                0.16907575726509094, 
                0.7558802962303162, 
                -0.27217137813568115, 
                0.570947527885437
            ], 
            "scale" : [
                1.0, 
                1.0, 
                0.9999999403953552
            ], 
            "translation" : [
                4.076245307922363, 
                5.903861999511719, 
                -1.0054539442062378
            ]
        }, 
        {
            "mesh" : 0, 
            "name" : "MPUV Cargo", 
            "rotation" : [
                0.7071068286895752, 
                0.0, 
                -0.0, 
                0.7071068286895752
            ], 
            "scale" : [
                0.009879574179649353, 
                0.009879574179649353, 
                0.009879574179649353
            ]
        }
    ], 
    "scene" : 0, 
    "scenes" : [
        {
            "name" : "Scene", 
            "nodes" : [
                3, 
                2, 
                1
            ]
        }
    ]
}
