{
    "accessors" : [
        {
            "bufferView" : 0, 
            "componentType" : 5123, 
            "count" : 97323, 
            "max" : [
                50668
            ], 
            "min" : [
                0
            ], 
            "type" : "SCALAR"
        }, 
        {
            "bufferView" : 1, 
            "componentType" : 5126, 
            "count" : 50669, 
            "max" : [
                1618.4759521484375, 
                3134.5712890625, 
                685.8807373046875
            ], 
            "min" : [
                -1625.23876953125, 
                -3127.923583984375, 
                -896.1087646484375
            ], 
            "type" : "VEC3"
        }, 
        {
            "bufferView" : 2, 
            "componentType" : 5126, 
            "count" : 50669, 
            "max" : [
                1.0, 
                1.0, 
                1.0
            ], 
            "min" : [
                -1.0, 
                -1.0, 
                -1.0
            ], 
            "type" : "VEC3"
        }, 
        {
            "bufferView" : 3, 
            "componentType" : 5126, 
            "count" : 50669, 
            "max" : [
                0.9999993443489075, 
                0.9998453855514526, 
                0.9999995827674866, 
                1.0
            ], 
            "min" : [
                -0.9985739588737488, 
                -0.9997830986976624, 
                -0.9999975562095642, 
                1.0
            ], 
            "type" : "VEC4"
        }, 
        {
            "bufferView" : 4, 
            "componentType" : 5126, 
            "count" : 50669, 
            "max" : [
                0.618667483329773, 
                0.7271561324596405
            ], 
            "min" : [
                0.3859636187553406, 
                0.27044379711151123
            ], 
            "type" : "VEC2"
        }
    ], 
    "asset" : {
        "generator" : "Khronos Blender glTF 2.0 exporter", 
        "version" : "2.0"
    }, 
    "bufferViews" : [
        {
            "buffer" : 0, 
            "byteLength" : 194646, 
            "byteOffset" : 0, 
            "target" : 34963
        }, 
        {
            "buffer" : 0, 
            "byteLength" : 608028, 
            "byteOffset" : 194648, 
            "target" : 34962
        }, 
        {
            "buffer" : 0, 
            "byteLength" : 608028, 
            "byteOffset" : 802676, 
            "target" : 34962
        }, 
        {
            "buffer" : 0, 
            "byteLength" : 810704, 
            "byteOffset" : 1410704, 
            "target" : 34962
        }, 
        {
            "buffer" : 0, 
            "byteLength" : 405352, 
            "byteOffset" : 2221408, 
            "target" : 34962
        }
    ], 
    "buffers" : [
        {
            "byteLength" : 2626760, 
            "uri" : "Polaris.bin"
        }
    ], 
    "cameras" : [
        {
            "name" : "Camera", 
            "perspective" : {
                "aspectRatio" : 1.7777777777777777, 
                "yfov" : 0.5033799372418416, 
                "zfar" : 100.0, 
                "znear" : 0.10000000149011612
            }, 
            "type" : "perspective"
        }
    ], 
    "meshes" : [
        {
            "name" : "Polaris", 
            "primitives" : [
                {
                    "attributes" : {
                        "NORMAL" : 2, 
                        "POSITION" : 1, 
                        "TANGENT" : 3, 
                        "TEXCOORD_0" : 4
                    }, 
                    "indices" : 0
                }
            ]
        }
    ], 
    "nodes" : [
        {
            "camera" : 0, 
            "name" : "Correction_Camera", 
            "rotation" : [
                -0.7071067690849304, 
                -0.0, 
                0.0, 
                0.7071067690849304
            ]
        }, 
        {
            "children" : [
                0
            ], 
            "name" : "Camera", 
            "rotation" : [
                0.483536034822464, 
                0.33687159419059753, 
                -0.20870360732078552, 
                0.7804827094078064
            ], 
            "translation" : [
                7.481131553649902, 
                5.34366512298584, 
                6.5076398849487305
            ]
        }, 
        {
            "name" : "Lamp", 
            "rotation" : [
                0.16907575726509094, 
                0.7558802962303162, 
                -0.27217137813568115, 
                0.570947527885437
            ], 
            "scale" : [
                1.0, 
                1.0, 
                0.9999999403953552
            ], 
            "translation" : [
                4.076245307922363, 
                5.903861999511719, 
                -1.0054539442062378
            ]
        }, 
        {
            "mesh" : 0, 
            "name" : "Polaris", 
            "rotation" : [
                0.7071068286895752, 
                0.0, 
                -0.0, 
                0.7071068286895752
            ], 
            "scale" : [
                0.001596139743924141, 
                0.001596139743924141, 
                0.001596139743924141
            ]
        }
    ], 
    "scene" : 0, 
    "scenes" : [
        {
            "name" : "Scene", 
            "nodes" : [
                3, 
                2, 
                1
            ]
        }
    ]
}
