{
    "accessors" : [
        {
            "bufferView" : 0, 
            "componentType" : 5123, 
            "count" : 169629, 
            "max" : [
                65534
            ], 
            "min" : [
                0
            ], 
            "type" : "SCALAR"
        }, 
        {
            "bufferView" : 1, 
            "componentType" : 5126, 
            "count" : 65535, 
            "max" : [
                978.7218017578125, 
                1376.26953125, 
                551.36328125
            ], 
            "min" : [
                -990.609375, 
                -1872.765625, 
                -551.3726806640625
            ], 
            "type" : "VEC3"
        }, 
        {
            "bufferView" : 2, 
            "componentType" : 5126, 
            "count" : 65535, 
            "max" : [
                1.0, 
                1.0, 
                1.0
            ], 
            "min" : [
                -1.0, 
                -1.0, 
                -1.0
            ], 
            "type" : "VEC3"
        }, 
        {
            "bufferView" : 3, 
            "componentType" : 5126, 
            "count" : 65535, 
            "max" : [
                0.9999997615814209, 
                1.0, 
                1.0, 
                1.0
            ], 
            "min" : [
                -0.9880648851394653, 
                -0.9999712109565735, 
                -1.0, 
                1.0
            ], 
            "type" : "VEC4"
        }, 
        {
            "bufferView" : 4, 
            "componentType" : 5126, 
            "count" : 65535, 
            "max" : [
                0.6320019960403442, 
                0.697109192609787
            ], 
            "min" : [
                0.3700151741504669, 
                0.2413804531097412
            ], 
            "type" : "VEC2"
        }, 
        {
            "bufferView" : 5, 
            "componentType" : 5123, 
            "count" : 25422, 
            "max" : [
                10564
            ], 
            "min" : [
                0
            ], 
            "type" : "SCALAR"
        }, 
        {
            "bufferView" : 6, 
            "componentType" : 5126, 
            "count" : 10565, 
            "max" : [
                892.2193603515625, 
                1872.7447509765625, 
                301.12750244140625
            ], 
            "min" : [
                -974.0576782226562, 
                501.729248046875, 
                -468.8738708496094
            ], 
            "type" : "VEC3"
        }, 
        {
            "bufferView" : 7, 
            "componentType" : 5126, 
            "count" : 10565, 
            "max" : [
                1.0, 
                1.0, 
                1.0
            ], 
            "min" : [
                -1.0, 
                -1.0, 
                -1.0
            ], 
            "type" : "VEC3"
        }, 
        {
            "bufferView" : 8, 
            "componentType" : 5126, 
            "count" : 10565, 
            "max" : [
                0.999997615814209, 
                0.9982883930206299, 
                0.9994726777076721, 
                1.0
            ], 
            "min" : [
                -0.9855588674545288, 
                -0.9998584389686584, 
                -0.9991361498832703, 
                1.0
            ], 
            "type" : "VEC4"
        }, 
        {
            "bufferView" : 9, 
            "componentType" : 5126, 
            "count" : 10565, 
            "max" : [
                0.6207203269004822, 
                0.7628314197063446
            ], 
            "min" : [
                0.37726134061813354, 
                0.5618038475513458
            ], 
            "type" : "VEC2"
        }, 
        {
            "bufferView" : 10, 
            "componentType" : 5123, 
            "count" : 1587, 
            "max" : [
                763
            ], 
            "min" : [
                0
            ], 
            "type" : "SCALAR"
        }, 
        {
            "bufferView" : 11, 
            "componentType" : 5126, 
            "count" : 764, 
            "max" : [
                893.4038696289062, 
                798.7703857421875, 
                304.162841796875
            ], 
            "min" : [
                -974.0576782226562, 
                500.470703125, 
                -448.1542663574219
            ], 
            "type" : "VEC3"
        }, 
        {
            "bufferView" : 12, 
            "componentType" : 5126, 
            "count" : 764, 
            "max" : [
                1.0, 
                0.6442762613296509, 
                0.999969482421875
            ], 
            "min" : [
                -0.999725341796875, 
                -0.9884945154190063, 
                -1.0
            ], 
            "type" : "VEC3"
        }, 
        {
            "bufferView" : 13, 
            "componentType" : 5126, 
            "count" : 764, 
            "max" : [
                0.9999330043792725, 
                0.9998049139976501, 
                0.9945902228355408, 
                1.0
            ], 
            "min" : [
                -0.7523208260536194, 
                -0.999119758605957, 
                -0.9954001903533936, 
                1.0
            ], 
            "type" : "VEC4"
        }, 
        {
            "bufferView" : 14, 
            "componentType" : 5126, 
            "count" : 764, 
            "max" : [
                0.6209589242935181, 
                0.612033873796463
            ], 
            "min" : [
                0.37726134061813354, 
                0.5618038475513458
            ], 
            "type" : "VEC2"
        }
    ], 
    "asset" : {
        "generator" : "Khronos Blender glTF 2.0 exporter", 
        "version" : "2.0"
    }, 
    "bufferViews" : [
        {
            "buffer" : 0, 
            "byteLength" : 339258, 
            "byteOffset" : 0, 
            "target" : 34963
        }, 
        {
            "buffer" : 0, 
            "byteLength" : 786420, 
            "byteOffset" : 339260, 
            "target" : 34962
        }, 
        {
            "buffer" : 0, 
            "byteLength" : 786420, 
            "byteOffset" : 1125680, 
            "target" : 34962
        }, 
        {
            "buffer" : 0, 
            "byteLength" : 1048560, 
            "byteOffset" : 1912100, 
            "target" : 34962
        }, 
        {
            "buffer" : 0, 
            "byteLength" : 524280, 
            "byteOffset" : 2960660, 
            "target" : 34962
        }, 
        {
            "buffer" : 0, 
            "byteLength" : 50844, 
            "byteOffset" : 3484940, 
            "target" : 34963
        }, 
        {
            "buffer" : 0, 
            "byteLength" : 126780, 
            "byteOffset" : 3535784, 
            "target" : 34962
        }, 
        {
            "buffer" : 0, 
            "byteLength" : 126780, 
            "byteOffset" : 3662564, 
            "target" : 34962
        }, 
        {
            "buffer" : 0, 
            "byteLength" : 169040, 
            "byteOffset" : 3789344, 
            "target" : 34962
        }, 
        {
            "buffer" : 0, 
            "byteLength" : 84520, 
            "byteOffset" : 3958384, 
            "target" : 34962
        }, 
        {
            "buffer" : 0, 
            "byteLength" : 3174, 
            "byteOffset" : 4042904, 
            "target" : 34963
        }, 
        {
            "buffer" : 0, 
            "byteLength" : 9168, 
            "byteOffset" : 4046080, 
            "target" : 34962
        }, 
        {
            "buffer" : 0, 
            "byteLength" : 9168, 
            "byteOffset" : 4055248, 
            "target" : 34962
        }, 
        {
            "buffer" : 0, 
            "byteLength" : 12224, 
            "byteOffset" : 4064416, 
            "target" : 34962
        }, 
        {
            "buffer" : 0, 
            "byteLength" : 6112, 
            "byteOffset" : 4076640, 
            "target" : 34962
        }
    ], 
    "buffers" : [
        {
            "byteLength" : 4082752, 
            "uri" : "Redeemer.bin"
        }
    ], 
    "cameras" : [
        {
            "name" : "Camera", 
            "perspective" : {
                "aspectRatio" : 1.7777777777777777, 
                "yfov" : 0.5033799372418416, 
                "zfar" : 100.0, 
                "znear" : 0.10000000149011612
            }, 
            "type" : "perspective"
        }
    ], 
    "meshes" : [
        {
            "name" : "redeemer", 
            "primitives" : [
                {
                    "attributes" : {
                        "NORMAL" : 2, 
                        "POSITION" : 1, 
                        "TANGENT" : 3, 
                        "TEXCOORD_0" : 4
                    }, 
                    "indices" : 0
                }, 
                {
                    "attributes" : {
                        "NORMAL" : 7, 
                        "POSITION" : 6, 
                        "TANGENT" : 8, 
                        "TEXCOORD_0" : 9
                    }, 
                    "indices" : 5
                }, 
                {
                    "attributes" : {
                        "NORMAL" : 12, 
                        "POSITION" : 11, 
                        "TANGENT" : 13, 
                        "TEXCOORD_0" : 14
                    }, 
                    "indices" : 10
                }
            ]
        }
    ], 
    "nodes" : [
        {
            "camera" : 0, 
            "name" : "Correction_Camera", 
            "rotation" : [
                -0.7071067690849304, 
                -0.0, 
                0.0, 
                0.7071067690849304
            ]
        }, 
        {
            "children" : [
                0
            ], 
            "name" : "Camera", 
            "rotation" : [
                0.483536034822464, 
                0.33687159419059753, 
                -0.20870360732078552, 
                0.7804827094078064
            ], 
            "translation" : [
                7.481131553649902, 
                5.34366512298584, 
                6.5076398849487305
            ]
        }, 
        {
            "name" : "Lamp", 
            "rotation" : [
                0.16907575726509094, 
                0.7558802962303162, 
                -0.27217137813568115, 
                0.570947527885437
            ], 
            "scale" : [
                1.0, 
                1.0, 
                0.9999999403953552
            ], 
            "translation" : [
                4.076245307922363, 
                5.903861999511719, 
                -1.0054539442062378
            ]
        }, 
        {
            "mesh" : 0, 
            "name" : "redeemer", 
            "rotation" : [
                0.7071068286895752, 
                0.0, 
                -0.0, 
                0.7071068286895752
            ], 
            "scale" : [
                0.0036915093660354614, 
                0.0036915093660354614, 
                0.0036915093660354614
            ]
        }
    ], 
    "scene" : 0, 
    "scenes" : [
        {
            "name" : "Scene", 
            "nodes" : [
                3, 
                2, 
                1
            ]
        }
    ]
}
