{
    "accessors" : [
        {
            "bufferView" : 0, 
            "componentType" : 5123, 
            "count" : 150849, 
            "max" : [
                65535
            ], 
            "min" : [
                0
            ], 
            "type" : "SCALAR"
        }, 
        {
            "bufferView" : 1, 
            "componentType" : 5126, 
            "count" : 65536, 
            "max" : [
                1999.4569091796875, 
                3329.99267578125, 
                613.0714111328125
            ], 
            "min" : [
                -1999.427978515625, 
                -3483.40625, 
                -613.0202026367188
            ], 
            "type" : "VEC3"
        }, 
        {
            "bufferView" : 2, 
            "componentType" : 5126, 
            "count" : 65536, 
            "max" : [
                1.0, 
                1.0, 
                1.0
            ], 
            "min" : [
                -1.0, 
                -1.0, 
                -1.0
            ], 
            "type" : "VEC3"
        }, 
        {
            "bufferView" : 3, 
            "componentType" : 5126, 
            "count" : 65536, 
            "max" : [
                1.0, 
                0.9912082552909851, 
                1.0, 
                1.0
            ], 
            "min" : [
                -0.9425453543663025, 
                -0.9979286789894104, 
                -0.9999998211860657, 
                1.0
            ], 
            "type" : "VEC4"
        }, 
        {
            "bufferView" : 4, 
            "componentType" : 5126, 
            "count" : 65536, 
            "max" : [
                0.6322721242904663, 
                0.7203706204891205
            ], 
            "min" : [
                0.3690453767776489, 
                0.2716546058654785
            ], 
            "type" : "VEC2"
        }, 
        {
            "bufferView" : 5, 
            "componentType" : 5123, 
            "count" : 29730, 
            "max" : [
                10932
            ], 
            "min" : [
                0
            ], 
            "type" : "SCALAR"
        }, 
        {
            "bufferView" : 6, 
            "componentType" : 5126, 
            "count" : 10933, 
            "max" : [
                2124.341552734375, 
                3483.67138671875, 
                481.6011657714844
            ], 
            "min" : [
                -2124.3125, 
                2245.814453125, 
                -563.5089111328125
            ], 
            "type" : "VEC3"
        }, 
        {
            "bufferView" : 7, 
            "componentType" : 5126, 
            "count" : 10933, 
            "max" : [
                1.0, 
                1.0, 
                1.0
            ], 
            "min" : [
                -1.0, 
                -0.9946897625923157, 
                -1.0
            ], 
            "type" : "VEC3"
        }, 
        {
            "bufferView" : 8, 
            "componentType" : 5126, 
            "count" : 10933, 
            "max" : [
                0.9999993443489075, 
                0.9887626767158508, 
                0.9994606971740723, 
                1.0
            ], 
            "min" : [
                -0.705177366733551, 
                -0.9300172328948975, 
                -0.996006190776825, 
                1.0
            ], 
            "type" : "VEC4"
        }, 
        {
            "bufferView" : 9, 
            "componentType" : 5126, 
            "count" : 10933, 
            "max" : [
                0.6406272649765015, 
                0.7303988337516785
            ], 
            "min" : [
                0.3608301877975464, 
                0.6485570669174194
            ], 
            "type" : "VEC2"
        }, 
        {
            "bufferView" : 10, 
            "componentType" : 5123, 
            "count" : 3270, 
            "max" : [
                1623
            ], 
            "min" : [
                0
            ], 
            "type" : "SCALAR"
        }, 
        {
            "bufferView" : 11, 
            "componentType" : 5126, 
            "count" : 1624, 
            "max" : [
                2111.03759765625, 
                3329.99267578125, 
                285.0018615722656
            ], 
            "min" : [
                -2111.008544921875, 
                2246.68212890625, 
                -360.8360290527344
            ], 
            "type" : "VEC3"
        }, 
        {
            "bufferView" : 12, 
            "componentType" : 5126, 
            "count" : 1624, 
            "max" : [
                1.0, 
                0.9939268231391907, 
                1.0
            ], 
            "min" : [
                -1.0, 
                -0.5365459322929382, 
                -1.0
            ], 
            "type" : "VEC3"
        }, 
        {
            "bufferView" : 13, 
            "componentType" : 5126, 
            "count" : 1624, 
            "max" : [
                1.0, 
                0.7980664372444153, 
                0.9920317530632019, 
                1.0
            ], 
            "min" : [
                -0.6003617644309998, 
                -0.7979165315628052, 
                -0.9941368699073792, 
                1.0
            ], 
            "type" : "VEC4"
        }, 
        {
            "bufferView" : 14, 
            "componentType" : 5126, 
            "count" : 1624, 
            "max" : [
                0.6397458910942078, 
                0.7203819453716278
            ], 
            "min" : [
                0.3616965711116791, 
                0.6490063369274139
            ], 
            "type" : "VEC2"
        }
    ], 
    "asset" : {
        "generator" : "Khronos Blender glTF 2.0 exporter", 
        "version" : "2.0"
    }, 
    "bufferViews" : [
        {
            "buffer" : 0, 
            "byteLength" : 301698, 
            "byteOffset" : 0, 
            "target" : 34963
        }, 
        {
            "buffer" : 0, 
            "byteLength" : 786432, 
            "byteOffset" : 301700, 
            "target" : 34962
        }, 
        {
            "buffer" : 0, 
            "byteLength" : 786432, 
            "byteOffset" : 1088132, 
            "target" : 34962
        }, 
        {
            "buffer" : 0, 
            "byteLength" : 1048576, 
            "byteOffset" : 1874564, 
            "target" : 34962
        }, 
        {
            "buffer" : 0, 
            "byteLength" : 524288, 
            "byteOffset" : 2923140, 
            "target" : 34962
        }, 
        {
            "buffer" : 0, 
            "byteLength" : 59460, 
            "byteOffset" : 3447428, 
            "target" : 34963
        }, 
        {
            "buffer" : 0, 
            "byteLength" : 131196, 
            "byteOffset" : 3506888, 
            "target" : 34962
        }, 
        {
            "buffer" : 0, 
            "byteLength" : 131196, 
            "byteOffset" : 3638084, 
            "target" : 34962
        }, 
        {
            "buffer" : 0, 
            "byteLength" : 174928, 
            "byteOffset" : 3769280, 
            "target" : 34962
        }, 
        {
            "buffer" : 0, 
            "byteLength" : 87464, 
            "byteOffset" : 3944208, 
            "target" : 34962
        }, 
        {
            "buffer" : 0, 
            "byteLength" : 6540, 
            "byteOffset" : 4031672, 
            "target" : 34963
        }, 
        {
            "buffer" : 0, 
            "byteLength" : 19488, 
            "byteOffset" : 4038212, 
            "target" : 34962
        }, 
        {
            "buffer" : 0, 
            "byteLength" : 19488, 
            "byteOffset" : 4057700, 
            "target" : 34962
        }, 
        {
            "buffer" : 0, 
            "byteLength" : 25984, 
            "byteOffset" : 4077188, 
            "target" : 34962
        }, 
        {
            "buffer" : 0, 
            "byteLength" : 12992, 
            "byteOffset" : 4103172, 
            "target" : 34962
        }
    ], 
    "buffers" : [
        {
            "byteLength" : 4116164, 
            "uri" : "Retaliator Base.bin"
        }
    ], 
    "cameras" : [
        {
            "name" : "Camera", 
            "perspective" : {
                "aspectRatio" : 1.7777777777777777, 
                "yfov" : 0.5033799372418416, 
                "zfar" : 100.0, 
                "znear" : 0.10000000149011612
            }, 
            "type" : "perspective"
        }
    ], 
    "meshes" : [
        {
            "name" : "retaliator", 
            "primitives" : [
                {
                    "attributes" : {
                        "NORMAL" : 2, 
                        "POSITION" : 1, 
                        "TANGENT" : 3, 
                        "TEXCOORD_0" : 4
                    }, 
                    "indices" : 0
                }, 
                {
                    "attributes" : {
                        "NORMAL" : 7, 
                        "POSITION" : 6, 
                        "TANGENT" : 8, 
                        "TEXCOORD_0" : 9
                    }, 
                    "indices" : 5
                }, 
                {
                    "attributes" : {
                        "NORMAL" : 12, 
                        "POSITION" : 11, 
                        "TANGENT" : 13, 
                        "TEXCOORD_0" : 14
                    }, 
                    "indices" : 10
                }
            ]
        }
    ], 
    "nodes" : [
        {
            "camera" : 0, 
            "name" : "Correction_Camera", 
            "rotation" : [
                -0.7071067690849304, 
                -0.0, 
                0.0, 
                0.7071067690849304
            ]
        }, 
        {
            "children" : [
                0
            ], 
            "name" : "Camera", 
            "rotation" : [
                0.483536034822464, 
                0.33687159419059753, 
                -0.20870360732078552, 
                0.7804827094078064
            ], 
            "translation" : [
                7.481131553649902, 
                5.34366512298584, 
                6.5076398849487305
            ]
        }, 
        {
            "name" : "Lamp", 
            "rotation" : [
                0.16907575726509094, 
                0.7558802962303162, 
                -0.27217137813568115, 
                0.570947527885437
            ], 
            "scale" : [
                1.0, 
                1.0, 
                0.9999999403953552
            ], 
            "translation" : [
                4.076245307922363, 
                5.903861999511719, 
                -1.0054539442062378
            ]
        }, 
        {
            "mesh" : 0, 
            "name" : "retaliator", 
            "rotation" : [
                0.7071068286895752, 
                0.0, 
                -0.0, 
                0.7071068286895752
            ], 
            "scale" : [
                0.0021774875931441784, 
                0.0021774875931441784, 
                0.0021774875931441784
            ]
        }
    ], 
    "scene" : 0, 
    "scenes" : [
        {
            "name" : "Scene", 
            "nodes" : [
                3, 
                2, 
                1
            ]
        }
    ]
}
